<?xml version="1.0" standalone="no"?><!DOCTYPE svg PUBLIC "-//W3C//DTD SVG 1.1//EN" "http://www.w3.org/Graphics/SVG/1.1/DTD/svg11.dtd"><svg t="1724664836556" class="icon" viewBox="0 0 1030 1024" version="1.1" xmlns="http://www.w3.org/2000/svg" p-id="1748" xmlns:xlink="http://www.w3.org/1999/xlink" width="201.171875" height="200"><path d="M121.536512 184.389632c262.356992-51.699712 524.713984-51.699712 787.070976 0 39.120896 258.732032 33.210368 517.464064-17.727488 776.200192-250.540032 67.31776-501.075968 67.31776-751.616 0-50.941952-258.732032-56.848384-517.464064-17.727488-776.200192z" fill="#5D82A3" p-id="1749"></path><path d="M246.587392 163.663872c69.033984 248.274944 192.565248 531.009536 282.804224 804.27008 82.80064-274.817024 192.135168-554.491904 250.486784-804.765696-177.762304-23.568384-355.528704-23.404544-533.291008 0.495616z" fill="#EDEDED" p-id="1750"></path><path d="M316.645376 46.125056c128.352256-18.210816 256.708608-18.751488 385.060864-1.622016A4948.95104 4948.95104 0 0 0 779.8784 163.176448c-177.762304-23.57248-355.528704-23.40864-533.295104 0.49152a5460.619264 5460.619264 0 0 0 70.06208-117.542912z" fill="#E8E8E8" p-id="1751"></path><path d="M246.587392 163.663872c28.770304 103.46496 67.002368 212.914176 108.347392 325.169152C410.99264 433.180672 467.43552 375.939072 522.21952 319.889408 447.258624 223.817728 376.016896 129.61792 316.645376 46.125056a5466.97216 5466.97216 0 0 1-70.057984 117.538816zM522.21952 319.889408c65.650688-95.830016 127.864832-189.894656 179.490816-275.390464a4948.95104 4948.95104 0 0 0 78.17216 118.673408c-24.109056 103.415808-56.922112 211.84512-92.975104 322.883584-55.15264-54.624256-110.6944-110.891008-164.687872-166.166528z" fill="#FFFFFF" p-id="1752"></path><path d="M391.962624 149.409792a1998.659584 1998.659584 0 0 1 244.129792-0.126976c-35.639296 55.21408-74.129408 112.590848-113.872896 170.606592-45.38368-58.167296-89.407488-115.646464-130.256896-170.479616z" fill="#8C8C8C" opacity=".42" p-id="1753"></path><path d="M485.330944 448.147456c-31.936512 130.220032-22.69184 270.4384 37.195776 400.596992a817.205248 817.205248 0 0 0 222.224384 29.097984c-11.18208-63.811584-8.777728-126.242816 4.349952-184.17664-92.9792-54.165504-170.754048-139.739136-212.15232-251.752448l-51.617792 6.234112z" fill="#FF6996" p-id="1754"></path><path d="M429.64992 421.318656a551.780352 551.780352 0 0 0 49.78688 53.276672c22.102016-3.518464 44.204032-7.032832 66.310144-10.530816a715.337728 715.337728 0 0 1 48.177152-52.957184 471.711744 471.711744 0 0 1-72.790016-89.57952 818.847744 818.847744 0 0 0-91.48416 99.790848z" fill="#F0638D" p-id="1755"></path><path d="M479.4368 474.595328a646.30784 646.30784 0 0 0-3.715072 20.324352l77.647872-13.881344a485.687296 485.687296 0 0 1-7.61856-16.97792c-22.106112 3.50208-44.208128 7.016448-66.31424 10.534912z" fill="#8F0000" opacity=".24" p-id="1756"></path></svg>